<svg xmlns="http://www.w3.org/2000/svg">
    <symbol id="bag" viewBox="0 0 39 42">
        <path fill-rule="evenodd" clip-rule="evenodd" d="M20.0245 16.74C24.9643 16.7403 28.9698 20.7467 28.97 25.6865C28.97 30.6264 24.9644 34.6327 20.0245 34.6329C15.0845 34.6329 11.0781 30.6265 11.0781 25.6865C11.0782 20.7466 15.0846 16.74 20.0245 16.74ZM24.4419 21.53C24.0302 21.1183 23.3572 21.1183 22.9456 21.53L20.1648 24.3108H19.9539L17.1722 21.53C16.7605 21.1185 16.0885 21.1185 15.6768 21.53C15.2652 21.9416 15.2652 22.6146 15.6768 23.0263L18.9803 26.3297V31.048C18.9803 31.6304 19.4518 32.1031 20.0441 32.1031C20.6365 32.1031 21.109 31.6304 21.109 31.048V26.3493L24.4321 23.0263H24.4419C24.8535 22.6146 24.8535 21.9416 24.4419 21.53Z" fill="currentColor"/>
        <path fill-rule="evenodd" clip-rule="evenodd" d="M17.9154 0.715112C19.1705 -0.228693 20.8774 -0.238042 22.1425 0.685696L23.2878 1.51915C23.6993 1.82004 24.241 1.87959 24.7027 1.67898C26.018 1.12674 27.4847 1.38847 28.5189 2.36242C29.5629 3.33633 29.9146 4.78216 29.4328 6.13749L29.0092 7.34159C30.1092 7.16708 31.137 6.97074 32.0744 6.75719C33.3614 6.46396 34.4697 6.14193 35.3572 5.81391C36.2569 5.48135 36.8842 5.15863 37.2447 4.87946L38.1664 6.06983C37.6259 6.48838 36.8307 6.87505 35.8788 7.22686C34.9145 7.58327 33.7409 7.92154 32.4087 8.22505C31.46 8.4412 30.4256 8.63881 29.323 8.81534C32.3029 13.1683 34.4147 17.9792 35.6072 23.1469L37.0231 29.3017C37.7059 31.6511 38.3388 34.2115 38.8911 36.842C39.1219 37.9465 38.8401 39.0815 38.1272 39.9651C37.4043 40.8484 36.3399 41.3604 35.1954 41.3604H4.83307C3.68847 41.3604 2.62321 40.8486 1.90028 39.9651C1.34804 39.2923 1.05702 38.4584 1.05702 37.6049H1.06781C1.06781 37.354 1.09706 37.093 1.14723 36.842C1.68943 34.2114 2.32211 31.6507 3.02496 29.2409L4.43105 23.1469C5.60253 18.0704 7.66211 13.3302 10.5673 9.03694C6.88179 8.51345 3.255 7.60039 0 6.16396L0.607933 4.78532C3.82104 6.20329 7.43933 7.09587 11.1311 7.59456L10.6065 6.09728C10.1346 4.75191 10.4853 3.316 11.5194 2.33202C12.5535 1.35814 14.0096 1.08694 15.3248 1.62897L15.4454 1.67898C15.9173 1.86974 16.4595 1.80974 16.8711 1.49856L17.9154 0.715112ZM26.9805 9.14087C25.6394 9.30111 24.2254 9.42907 22.7622 9.50956C19.651 9.68066 16.2994 9.64926 12.9411 9.32031C9.84977 13.6368 7.67933 18.4414 6.4892 23.6185L5.0733 29.7733C4.37047 32.1831 3.74831 34.6833 3.21616 37.2637C3.11576 37.7456 3.23633 38.248 3.54758 38.6296C3.86888 39.0209 4.34099 39.2414 4.84287 39.2414H35.2062C35.7078 39.2413 36.1793 39.0207 36.5005 38.6296C36.8118 38.248 36.9424 37.7456 36.8319 37.2637C36.2998 34.6832 35.6772 32.1829 34.9944 29.8234L33.5589 23.6087C32.3515 18.3599 30.1321 13.4979 26.9805 9.14087ZM20.8982 2.37222C20.3861 1.99067 19.6924 2.00048 19.1803 2.38203L18.137 3.16548C17.1329 3.91852 15.7973 4.08864 14.6326 3.60672L14.512 3.55671C13.9698 3.33582 13.3974 3.43654 12.9656 3.83812C12.534 4.23965 12.4035 4.81173 12.594 5.36384L13.4775 7.85931C16.6085 8.14433 19.7423 8.16796 22.6798 8.00639C24.0624 7.93034 25.3978 7.81268 26.6647 7.66418L27.4541 5.42463C27.6549 4.8724 27.5142 4.28976 27.0824 3.88813C26.6777 3.51178 26.1405 3.39081 25.6283 3.5675L25.3096 3.69006C24.2162 4.0679 22.9838 3.89273 22.0425 3.20568L20.8982 2.37222Z" fill="currentColor"/>
    </symbol>

    <symbol id="blades" viewBox="0 0 57 57" fill="none">
        <path d="M10.5218 7.3047C15.2934 3.26346 21.4669 0.826416 28.2096 0.826416C43.3329 0.826416 55.5927 13.0862 55.5927 28.2095C55.5927 43.3328 43.3329 55.5926 28.2096 55.5926C13.0863 55.5926 0.82645 43.3328 0.82645 28.2095C0.82645 21.726 3.0798 15.7687 6.846 11.0781" stroke="currentColor" stroke-width="1.6529" stroke-miterlimit="10" stroke-linecap="round" stroke-linejoin="round"/>
        <path d="M28.2097 49.9559C40.2198 49.9559 49.956 40.2197 49.956 28.2095C49.956 16.1993 40.2198 6.46313 28.2097 6.46313C16.1995 6.46313 6.46328 16.1993 6.46328 28.2095C6.46328 40.2197 16.1995 49.9559 28.2097 49.9559Z" stroke="currentColor" stroke-width="1.6529" stroke-miterlimit="10" stroke-linecap="round" stroke-linejoin="round"/>
        <path d="M30.7502 38.3231C30.6597 42.414 29.5364 46.4156 27.4849 49.956M27.4849 6.46313L26.6888 9.11505C25.8384 11.9474 25.5126 14.9113 25.7274 17.8608M23.5711 37.4726C20.579 40.4028 16.8797 42.509 12.8328 43.5866M43.5868 12.8324L41.1487 14.1447C38.5555 15.5403 36.2378 17.3961 34.3089 19.6214M18.0962 30.7499C14.0053 30.6594 10.0037 29.5362 6.46328 27.4847M49.9561 27.4847L47.3042 26.6885C44.3959 25.8153 41.3495 25.4954 38.3232 25.7455M19.1137 23.7397C16.0975 20.7194 13.931 16.9572 12.8327 12.8325M43.5868 43.5866L42.2745 41.1484C40.8996 38.5938 39.078 36.3062 36.8961 34.3941" stroke="currentColor" stroke-width="1.6529" stroke-miterlimit="10" stroke-linecap="round" stroke-linejoin="round"/>
        <path d="M28.2096 38.3231C33.7952 38.3231 38.3233 33.795 38.3233 28.2094C38.3233 22.6238 33.7952 18.0957 28.2096 18.0957C22.624 18.0957 18.0959 22.6238 18.0959 28.2094C18.0959 33.795 22.624 38.3231 28.2096 38.3231Z" stroke="currentColor" stroke-width="1.6529" stroke-miterlimit="10" stroke-linecap="round" stroke-linejoin="round"/>
        <path d="M32.5542 30.7504C31.6807 32.2409 30.0619 33.2416 28.2096 33.2416C25.4303 33.2416 23.1772 30.9886 23.1772 28.2093C23.1772 25.43 25.4303 23.177 28.2096 23.177C30.4161 23.177 32.291 24.5972 32.97 26.5733M27.1114 27.1111L29.3077 29.3075M29.3077 27.1111L27.1114 29.3075" stroke="currentColor" stroke-width="1.6529" stroke-miterlimit="10" stroke-linecap="round" stroke-linejoin="round"/>
    </symbol>

    <symbol id="fan" viewBox="0 0 56 43">
        <path d="M33.9472 20.2991C34.1437 20.104 34.4617 20.1051 34.6571 20.3011C34.8524 20.4976 34.8514 20.8155 34.6551 21.011L33.0039 22.6534L32.9245 22.7171C32.7294 22.845 32.465 22.8231 32.294 22.6514C32.0988 22.4547 32.0994 22.1359 32.296 21.9405L33.9472 20.2991Z" fill="currentColor"/>
        <path fill-rule="evenodd" clip-rule="evenodd" d="M1.97971 0.00980538C4.13026 0.363609 5.71296 1.60872 7.00006 2.8112C7.32293 3.11285 7.63394 3.4174 7.92863 3.70643C8.22598 3.99808 8.50705 4.27346 8.78366 4.52812C9.27396 4.97951 9.7167 5.33586 10.1466 5.57436L11.9194 5.4008C11.9582 5.3946 11.9979 5.39103 12.0381 5.391H53.1049L53.1883 5.3959C53.3797 5.41722 53.5574 5.5114 53.6825 5.66064C54.1901 6.26728 54.5442 7.18322 54.7983 8.11689C55.0591 9.07499 55.2406 10.153 55.3533 11.1615C55.466 12.1697 55.5129 13.1328 55.4975 13.8668C55.4898 14.2294 55.4661 14.5607 55.421 14.8218C55.3991 14.9486 55.3658 15.0934 55.3112 15.2268C55.2836 15.2938 55.2404 15.3838 55.1719 15.4729C55.1217 15.5381 55.0404 15.6267 54.9199 15.6964L54.7856 15.7582C54.7097 15.7855 54.6299 15.8013 54.5493 15.8033L38.0939 16.2034L38.0949 16.2044C37.7753 16.2134 37.5323 16.4667 37.532 16.777V16.7809L37.5271 17.6909H38.2655C38.5426 17.6909 38.7673 17.9158 38.7675 18.1929C38.7675 18.4702 38.5428 18.6949 38.2655 18.6949H37.5222L37.4958 24.2575H37.8125L37.9135 24.2673C38.1422 24.314 38.3143 24.5171 38.3145 24.7596C38.3145 25.0022 38.1423 25.205 37.9135 25.2518L37.8125 25.2616H37.4909L37.4114 41.5209C37.4103 41.76 37.2956 41.9848 37.1026 42.1259C36.8824 42.2866 36.6091 42.3866 36.3642 42.4553C36.1051 42.528 35.8089 42.5844 35.4984 42.6269C34.8765 42.712 34.1427 42.7504 33.4197 42.7485C32.6962 42.7465 31.9613 42.7039 31.338 42.6181C31.0269 42.5753 30.7308 42.5195 30.4722 42.4494C30.2269 42.3829 29.9582 42.2882 29.7407 42.1415C29.5336 42.0016 29.4094 41.7679 29.4093 41.5179V16.727C29.409 16.4167 29.1556 16.1534 28.8357 16.1446L12.1371 15.8053C12.1067 15.8089 12.0762 15.8143 12.0449 15.8141L11.9684 15.8102L10.179 15.616C9.89658 15.8137 9.51846 16.1537 9.02879 16.625C8.45814 17.1743 7.76818 17.8685 7.0383 18.5243C6.30491 19.1833 5.49253 19.8396 4.63794 20.3334C3.83936 20.7948 2.95975 21.1403 2.04148 21.1816L1.85714 21.1855L1.73163 21.1757L1.01878 21.0551L1.01584 21.0541C0.428165 20.9519 0.000203668 20.4507 0 19.85V1.23548C0 0.660472 0.420846 0.148252 1.02466 0.0853068L1.77771 0.00392215L1.87871 0C1.91247 0.000955722 1.94631 0.00431567 1.97971 0.00980538ZM12.6166 6.8971C12.3304 8.12189 12.2211 9.6868 12.2489 11.1517C12.2647 11.9869 12.325 12.7696 12.4146 13.4118C12.4656 13.7775 12.5252 14.077 12.5832 14.307L28.8719 14.6384H28.8778L29.0857 14.6551C30.1135 14.7862 30.9152 15.6627 30.9154 16.727V23.4447C31.0701 23.419 31.2346 23.4653 31.3537 23.5849C31.5376 23.77 31.5456 24.0608 31.3821 24.2575H31.6998C31.9769 24.2575 32.2016 24.4825 32.2018 24.7596C32.2018 25.0368 31.9771 25.2616 31.6998 25.2616H30.9154V41.0071C31.0852 41.0503 31.2968 41.0917 31.5439 41.1257C32.0854 41.2002 32.7504 41.2406 33.4236 41.2424C34.0971 41.2442 34.759 41.2078 35.2945 41.1345C35.5376 41.1012 35.7432 41.0588 35.9073 41.0159L35.9848 25.2616H34.7561C34.479 25.2615 34.2541 25.0367 34.2541 24.7596C34.2543 24.4826 34.4791 24.2576 34.7561 24.2575H35.9897L36.0122 19.5098C35.8643 19.5272 35.7106 19.4813 35.5974 19.3676C35.4022 19.1709 35.4028 18.8531 35.5994 18.6577L36.0181 18.24L36.0259 16.7731C36.0283 15.6402 36.9285 14.7308 38.0527 14.6992H38.0556L53.9659 14.31C53.977 14.1792 53.9874 14.0199 53.9913 13.8344C54.0051 13.1798 53.9629 12.2846 53.856 11.3282C53.7491 10.3716 53.5798 9.37503 53.3452 8.51303C53.1564 7.81955 52.9389 7.26974 52.7147 6.8971H12.6166ZM1.50611 1.54729V19.6088L1.90518 19.6764C2.51361 19.665 3.1759 19.4393 3.88391 19.0303C4.60758 18.6121 5.33135 18.0333 6.03227 17.4036C6.73669 16.7706 7.3809 16.1206 7.98452 15.5396C8.55419 14.9912 9.13493 14.4553 9.63869 14.1796L9.7436 14.1325C9.851 14.0935 9.96631 14.079 10.0809 14.0913L11.0163 14.1913C10.9816 14.0075 10.9495 13.8156 10.9222 13.6197C10.823 12.9084 10.7605 12.0648 10.7438 11.1801C10.718 9.81836 10.8017 8.30787 11.0556 6.9981L10.074 7.09517C9.9369 7.10862 9.79819 7.08424 9.67399 7.02457C8.98129 6.69147 8.35179 6.17735 7.7639 5.63613C7.46711 5.36288 7.16874 5.07159 6.87357 4.78208C6.57579 4.49002 6.27937 4.19811 5.97246 3.91136C4.76173 2.78023 3.4773 1.81167 1.82674 1.51297L1.50611 1.54729Z" fill="currentColor"/>
        <path d="M49.6515 33.0333L47.6414 32.5921C46.3817 35.1371 43.9186 36.7681 40.4942 36.7682C40.217 36.7682 39.9922 36.5434 39.9922 36.2662C39.9924 35.9891 40.2171 35.7641 40.4942 35.7641C43.4385 35.7641 45.5083 34.4398 46.6265 32.3695L44.6606 31.9391L48.1052 28.1738L49.6515 33.0333Z" fill="currentColor"/>
        <path d="M43.9251 24.2575C44.2021 24.2577 44.427 24.4826 44.4272 24.7596C44.4272 25.0367 44.2022 25.2614 43.9251 25.2616H40.8688C40.5916 25.2616 40.3668 25.0368 40.3668 24.7596C40.367 24.4825 40.5917 24.2575 40.8688 24.2575H43.9251Z" fill="currentColor"/>
        <path d="M50.0368 24.2575C50.314 24.2575 50.5386 24.4825 50.5389 24.7596C50.5389 25.0368 50.3141 25.2616 50.0368 25.2616H46.9805C46.7034 25.2614 46.4785 25.0367 46.4785 24.7596C46.4787 24.4826 46.7036 24.2577 46.9805 24.2575H50.0368Z" fill="currentColor"/>
        <path d="M55.2445 22.6867C55.5191 22.7237 55.7117 22.9769 55.6749 23.2515L55.6259 23.578C55.5723 23.8964 55.5052 24.1886 55.4239 24.4291C55.3702 24.5879 55.3029 24.7461 55.216 24.8792C55.1464 24.9857 55.0278 25.1328 54.8425 25.2126L54.7591 25.242C54.7143 25.2548 54.6675 25.2616 54.6209 25.2616H53.0932C52.8159 25.2616 52.5912 25.0368 52.5911 24.7596C52.5914 24.4825 52.8161 24.2575 53.0932 24.2575H54.414C54.4312 24.22 54.4515 24.1705 54.4728 24.1075C54.5519 23.8734 54.6247 23.5325 54.6807 23.1172L54.7042 23.0181C54.7813 22.7981 55.0044 22.6545 55.2445 22.6867Z" fill="currentColor"/>
        <path d="M54.7346 17.7036C54.7716 17.7122 54.8081 17.725 54.8425 17.7418C55.1819 17.9083 55.3613 18.2692 55.4661 18.5596C55.5529 18.8004 55.6186 19.0825 55.6681 19.3842L55.7122 19.6912L55.7151 19.7931C55.697 20.0258 55.5174 20.2219 55.2768 20.252C55.036 20.282 54.8132 20.136 54.7385 19.9147L54.716 19.8157L54.6767 19.5431C54.6342 19.2844 54.582 19.0667 54.5218 18.8999C54.485 18.7979 54.4504 18.7341 54.4267 18.6949H53.1344C52.8571 18.6949 52.6323 18.4702 52.6323 18.1929C52.6326 17.9158 52.8572 17.6909 53.1344 17.6909H54.6209L54.7346 17.7036Z" fill="currentColor"/>
        <path d="M44.2134 17.6909C44.4905 17.691 44.7152 17.9159 44.7155 18.1929C44.7155 18.4701 44.4906 18.6948 44.2134 18.6949H41.2395C40.9622 18.6949 40.7374 18.4701 40.7374 18.1929C40.7377 17.9158 40.9624 17.6909 41.2395 17.6909H44.2134Z" fill="currentColor"/>
        <path d="M50.1604 17.6909C50.4375 17.6909 50.6622 17.9158 50.6624 18.1929C50.6624 18.4702 50.4377 18.6949 50.1604 18.6949H47.1874C46.9101 18.6949 46.6854 18.4702 46.6854 18.1929C46.6856 17.9158 46.9103 17.6909 47.1874 17.6909H50.1604Z" fill="currentColor"/>
    </symbol>

    <symbol id="ions" viewBox="0 0 40 41">
        <path d="M31.4478 32.1705C32.2007 32.1705 32.8135 32.2705 33.2853 32.4813C33.7671 32.682 34.1181 32.9035 34.359 33.1343L33.6266 34.5296C33.4057 34.3389 33.094 34.1684 32.7225 34.0178C32.351 33.8672 31.9594 33.7766 31.5478 33.7766C31.2567 33.7766 31.0155 33.8471 30.8448 33.9776C30.6742 34.1181 30.5938 34.2688 30.5938 34.4394C30.5938 34.6603 30.6947 34.8308 30.9056 34.9513C31.1064 35.0717 31.3672 35.1727 31.6684 35.2631C31.9696 35.3534 32.3211 35.4539 32.6725 35.5543C33.0339 35.6547 33.3754 35.7954 33.6766 35.9661C33.9776 36.1367 34.2387 36.3571 34.4394 36.628C34.6402 36.8991 34.7512 37.2614 34.7512 37.7232C34.7512 38.4861 34.4799 39.0887 33.9178 39.5304C33.3555 39.9722 32.6022 40.1932 31.6684 40.1932C31.307 40.1932 30.9655 40.1424 30.6242 40.052C30.2828 39.9617 29.9613 39.8619 29.6701 39.7314C29.379 39.6009 29.1279 39.4603 28.917 39.3098C28.7163 39.1592 28.5562 38.998 28.4758 38.8675L29.4289 37.5928C29.5493 37.7132 29.7001 37.8333 29.8907 37.9537C30.0815 38.0742 30.2827 38.1751 30.5035 38.2655C30.7244 38.3458 30.9455 38.4153 31.1664 38.4655C31.3873 38.5157 31.5885 38.5361 31.7792 38.5361C32.0702 38.536 32.3114 38.4663 32.4921 38.3459C32.6827 38.2255 32.7832 38.0344 32.7833 37.8036L32.7617 37.8713C32.761 37.6715 32.6619 37.5011 32.4519 37.381C32.2511 37.2606 31.9893 37.1606 31.688 37.0702C31.3869 36.9799 31.0558 36.8793 30.7046 36.779C30.3431 36.6786 30.0213 36.5381 29.7201 36.3574C29.419 36.1766 29.158 35.9356 28.9572 35.6445C28.7564 35.3533 28.6464 34.9817 28.6464 34.5198C28.6464 34.1484 28.7169 33.8069 28.8474 33.5158C28.988 33.2247 29.1887 32.9841 29.4397 32.7833C29.6906 32.5826 30.0015 32.4219 30.3427 32.3215C30.6841 32.2211 31.0562 32.1705 31.4478 32.1705Z" fill="currentColor"/>
        <path fill-rule="evenodd" clip-rule="evenodd" d="M13.706 32.0901C14.3384 32.0901 14.9207 32.1911 15.4327 32.4019C15.9445 32.6026 16.3863 32.8831 16.7476 33.2343C17.1091 33.5958 17.4008 34.018 17.6016 34.51C17.8024 35.0019 17.9124 35.534 17.9125 36.1161C17.9125 36.6985 17.8125 37.2212 17.6016 37.7232C17.4009 38.2151 17.1195 38.6466 16.7682 38.9979C16.4067 39.3594 15.9644 39.6306 15.4523 39.8314C14.9403 40.0322 14.3578 40.1432 13.7354 40.1432C13.113 40.1432 12.5206 40.0422 12.0086 39.8314C11.4968 39.6307 11.0551 39.3396 10.6937 38.9783C10.3323 38.6169 10.0611 38.1947 9.86029 37.7027C9.65951 37.2107 9.5485 36.6788 9.54848 36.0965L9.51906 36.1269L9.49847 36.1367C9.49847 35.5544 9.59844 35.0317 9.8093 34.5296C10.0101 34.0377 10.3019 33.6063 10.6633 33.2549C11.0247 32.8936 11.4664 32.6027 11.9782 32.4019C12.4903 32.2011 13.0734 32.0901 13.706 32.0901ZM13.6756 33.9776C13.3944 33.9776 13.113 34.0282 12.8519 34.1286C12.601 34.229 12.3697 34.3696 12.1891 34.5502C11.9985 34.7409 11.8482 34.9618 11.7478 35.2327C11.6474 35.5038 11.5968 35.8154 11.5968 36.1367H11.5566C11.5567 36.7893 11.7573 37.3116 12.1489 37.7232C12.5405 38.1349 13.0329 38.3351 13.6354 38.3351C14.2378 38.3351 14.7597 38.1344 15.1513 37.7429C15.5428 37.3513 15.7435 36.819 15.7435 36.1563C15.7435 35.8351 15.6939 35.5439 15.5935 35.2729C15.4931 35.0018 15.342 34.7606 15.1513 34.5698C14.9606 34.3792 14.7393 34.229 14.4884 34.1286C14.2375 34.0283 13.9566 33.9776 13.6756 33.9776Z" fill="currentColor"/>
        <path d="M7.54034 39.9314H5.5822V32.2607H7.54034V39.9314Z" fill="currentColor"/>
        <path d="M23.7359 32.1401C24.1877 32.1401 24.62 32.1902 25.0116 32.3107C25.4031 32.4312 25.7445 32.6225 26.0156 32.8735C26.2866 33.1244 26.5071 33.4657 26.6677 33.8972C26.8183 34.3189 26.9089 34.8312 26.9089 35.4337V39.9314H24.9508V35.7749C24.9507 35.1625 24.8002 34.7002 24.4889 34.409C24.1777 34.1181 23.7561 33.9678 23.2142 33.9678C22.8929 33.9678 22.5813 34.0383 22.3102 34.1688C22.0392 34.3093 21.7779 34.4795 21.5571 34.7002V39.9314H19.599V32.2607L21.5473 32.2813H21.5375V33.0441C21.7584 32.7931 22.0696 32.5618 22.4612 32.3911C22.8526 32.2205 23.2842 32.1401 23.7359 32.1401Z" fill="currentColor"/>
        <path d="M32.7627 37.8733L32.7529 37.9037L32.7617 37.8713L32.7627 37.8733Z" fill="currentColor"/>
        <path d="M6.58627 28.3552C6.87738 28.3552 7.1288 28.4553 7.36972 28.666C7.61067 28.8668 7.73152 29.1481 7.73154 29.4995C7.73154 29.8911 7.6107 30.2027 7.36972 30.4035C7.12882 30.6042 6.87736 30.7144 6.58627 30.7144C6.26519 30.7143 5.97405 30.6142 5.7332 30.4035C5.49223 30.2027 5.37139 29.8911 5.37139 29.4995C5.37141 29.1381 5.49225 28.8668 5.7332 28.666C5.97406 28.4653 6.26517 28.3553 6.58627 28.3552Z" fill="currentColor"/>
        <path d="M30.2525 21.6875V21.7581L26.9589 25.6136L25.6342 24.5095V24.4997L27.9836 21.7179L25.6136 18.9773L26.8893 17.8321L30.2525 21.6875Z" fill="currentColor"/>
        <path d="M33.8276 21.6875V21.7581L30.5339 25.6136L29.2083 24.5095V24.4997L31.5576 21.7179L29.1886 18.9773L30.4633 17.8321L33.8276 21.6875Z" fill="currentColor"/>
        <path d="M10.3819 18.9773L8.01295 21.7179L10.3623 24.4997L9.03664 25.6038L5.74301 21.7483V21.6875L9.10723 17.8321L10.3819 18.9773Z" fill="currentColor"/>
        <path d="M13.9668 18.9773L11.5968 21.7179L13.9462 24.4997L12.6215 25.6038L9.32786 21.7483V21.6875L12.6911 17.8321L13.9668 18.9773Z" fill="currentColor"/>
        <path d="M23.4447 22.2298H16.1249V20.5236H23.4447V22.2298Z" fill="currentColor"/>
        <path d="M28.7562 9.10723C28.7563 9.5288 28.8069 9.83994 28.9072 10.0407C29.0076 10.2415 29.1786 10.3515 29.3995 10.3515C29.55 10.3515 29.6909 10.3223 29.8113 10.2721C29.9316 10.2219 30.0518 10.1513 30.1721 10.0711L30.584 11.5674C30.3631 11.758 30.0922 11.9088 29.7711 12.0292C29.4499 12.1497 29.0581 12.2194 28.5964 12.2195C28.004 12.2195 27.5513 12.0291 27.2501 11.6576C26.9489 11.2861 26.7883 10.7033 26.7883 9.9201V0.100015H28.7562V9.10723Z" fill="currentColor"/>
        <path d="M3.74565 0C4.30772 4.46747e-05 4.79955 0.0803826 5.23117 0.251018C5.65288 0.42171 6.01466 0.662883 6.30584 0.954063C6.59689 1.24518 6.79775 1.56688 6.93828 1.94833C7.07872 2.31966 7.13928 2.71104 7.1393 3.10242C7.1393 3.66458 7.05889 4.20689 6.88828 4.73894C6.71759 5.2711 6.49602 5.78392 6.20484 6.25583C5.91378 6.72754 5.61261 7.18916 5.27137 7.62074C4.92999 8.04245 4.5886 8.42462 4.2673 8.76601C3.94608 9.10728 3.63474 9.39852 3.34363 9.64947C3.05252 9.90043 2.83138 10.0908 2.68079 10.2113H7.64133V12.039H0.140217V10.4721L0.0196108 10.5025L0 10.4927C0.491987 10.0108 1.02377 9.4881 1.60612 8.92583C2.18845 8.36358 2.73105 7.77159 3.22303 7.1491C3.71498 6.53667 4.14655 5.92401 4.48792 5.31157C4.82931 4.69909 5.00074 4.09637 5.00074 3.52405C5.0007 3.04221 4.8801 2.67043 4.62912 2.39938C4.37814 2.12833 3.99631 1.98858 3.50444 1.98853C3.0828 1.98853 2.72093 2.12836 2.42977 2.39938C2.13865 2.67042 1.93743 3.06214 1.81694 3.57406L0.180419 2.8416C0.33102 1.96811 0.72261 1.27492 1.3551 0.762858C1.98767 0.250782 2.79179 0 3.74565 0Z" fill="currentColor"/>
        <path d="M17.5212 4.1565C18.1135 4.15653 18.6157 4.27737 18.9871 4.51832C19.3585 4.75925 19.6195 5.05045 19.75 5.40178C20.0211 5.04037 20.3824 4.749 20.8041 4.52812C21.2258 4.30723 21.7381 4.1869 22.3406 4.1869C22.702 4.1869 23.0231 4.23753 23.3142 4.3379C23.6054 4.43831 23.8572 4.58841 24.0781 4.81934C24.2989 5.05025 24.4695 5.33161 24.5899 5.693C24.7104 6.05447 24.7801 6.49657 24.7801 7.01869V12.0292L22.8328 11.9488V7.45013C22.8328 6.96822 22.7318 6.61689 22.521 6.35585C22.3202 6.1049 21.9787 5.98422 21.5169 5.98422C21.1557 5.98427 20.8348 6.06475 20.5638 6.23524C20.2928 6.40589 20.0815 6.60672 19.951 6.86769V11.9488H17.9929V7.30991C17.9929 6.91832 17.8921 6.59682 17.6713 6.35585C17.4504 6.11498 17.1292 5.99403 16.6976 5.99403C16.3363 5.99404 16.0351 6.06458 15.7641 6.19504C15.4931 6.33557 15.2719 6.53635 15.1013 6.78728V11.938H13.1431V4.2673H15.1013V5.12037C15.3723 4.80923 15.7337 4.57816 16.1553 4.40752C16.577 4.23682 17.0393 4.1565 17.5212 4.1565Z" fill="currentColor"/>
        <path d="M36.0161 4.2369C36.4678 4.23691 36.8994 4.28713 37.2908 4.40752C37.6824 4.52799 38.0238 4.71936 38.2949 4.97035C38.566 5.22132 38.7873 5.56237 38.9479 5.99403C39.0985 6.41574 39.1892 6.92809 39.1892 7.53053V12.0283H37.231V7.87176C37.231 7.25934 37.0804 6.79703 36.7692 6.50587C36.4579 6.2148 36.0356 6.06463 35.4935 6.06463C35.1724 6.06468 34.8614 6.13518 34.5904 6.26564C34.3195 6.40614 34.0582 6.57635 33.8374 6.79709V12.0283H31.8792V4.35751L33.8276 4.3781H33.8168V5.14096C34.0376 4.88999 34.349 4.6586 34.7405 4.48792C35.132 4.31723 35.5643 4.2369 36.0161 4.2369Z" fill="currentColor"/>
        <path d="M28.767 0.100015H28.7562V0.0902095L28.767 0.100015Z" fill="currentColor"/>
    </symbol>

    <symbol id="stylus" viewBox="0 0 46 40">
        <path fill-rule="evenodd" clip-rule="evenodd" d="M45.2037 14.3752C43.8165 19.6334 41.2448 24.1216 37.466 27.8795C36.5167 28.8234 33.8069 30.9782 32.837 31.5602C32.3341 31.8619 32.3104 31.8649 28.8988 32.042C27.011 32.14 25.4625 32.2501 25.4575 32.2867C25.4438 32.3889 26.2917 32.7621 26.8934 32.9187C27.72 33.1339 27.9478 33.3382 27.8882 33.8111C27.7534 34.8804 24.1876 36.9369 21.4201 37.5416C19.7761 37.9007 18.6275 37.9471 16.6336 37.7349C14.6212 37.5207 14.4014 37.4474 14.233 36.9337C14.12 36.589 14.3425 36.1017 14.6687 35.9794C14.8067 35.9276 15.3601 35.9648 16.1102 36.0763C19.2843 36.5481 22.3791 35.9682 24.8577 34.4368L25.3413 34.1379L24.8491 33.8389C24.1426 33.4095 23.2317 32.5285 22.9965 32.0472C22.7421 31.5265 22.8274 31.0614 23.2165 30.8471C23.4112 30.7399 24.7191 30.6344 27.7729 30.4795L32.0561 30.2623L33.4402 29.1925C34.2015 28.6042 34.81 28.1042 34.7924 28.0814C34.7749 28.0586 34.4195 28.0685 34.0026 28.1034C32.9935 28.1879 30.9651 28.0046 30.4288 27.7804C30.2017 27.6854 29.94 27.5092 29.8474 27.3887C29.6331 27.11 29.6915 26.6561 29.9763 26.3868C30.1909 26.1838 30.2438 26.1834 31.7256 26.3727C33.6456 26.6179 34.6608 26.5304 36.2392 25.9834L37.3314 25.6049L38.0786 24.7438C38.8105 23.9004 40.6474 21.3452 40.5328 21.3301C40.5008 21.3258 40.2014 21.4164 39.8674 21.5314C39.0537 21.8114 38.5757 21.891 38.0681 21.831C37.7285 21.7909 37.6062 21.7223 37.4506 21.4849C37.0405 20.8593 37.4436 20.3371 38.4463 20.1949C39.6387 20.0259 41.1396 19.3473 41.8552 18.6538C42.0515 18.4635 42.2947 18.0117 42.555 17.354C44.3653 12.7784 44.817 7.86076 43.8613 3.12991C43.746 2.559 43.6304 2.01151 43.6044 1.9132C43.561 1.74834 43.5075 1.74612 42.9134 1.88503C41.2596 2.27182 38.9937 3.16634 37.4458 4.04361C36.5165 4.57031 36.1456 4.62434 35.7765 4.28641C35.5316 4.06229 35.4827 3.62938 35.6674 3.31958C35.9377 2.86622 38.6174 1.53478 40.5866 0.875356C42.1329 0.357551 43.8747 -0.0507652 44.298 0.00518149C44.6723 0.0546414 44.9018 0.404234 45.1351 1.28038C45.6327 3.14892 45.9519 5.42832 46.0069 7.5052C46.0451 8.9478 45.5752 12.967 45.2037 14.3752ZM37.1131 14.7689C36.3792 15.7431 32.8322 19.4415 30.9243 21.222C22.7427 28.8572 13.2793 34.7763 2.80435 38.8102C1.77013 39.2085 0.812173 39.5196 0.675381 39.5015C0.247178 39.4449 -0.051003 39.0437 0.00727588 38.6027C0.0694391 38.1324 0.258664 38.0143 1.9392 37.3981C3.54533 36.8091 5.60554 35.9475 7.40764 35.1112C8.2386 34.7255 8.93342 34.3989 8.95165 34.3852C8.96996 34.3715 8.90974 33.889 8.81792 33.3129C8.34784 30.3647 8.83863 27.0589 10.1435 24.3826C10.5435 23.5622 10.7857 23.3595 11.2867 23.4257C11.6348 23.4717 11.8307 23.708 12.1334 24.4468C12.3303 24.9276 12.7744 25.5587 12.7936 25.3852C12.7992 25.3346 12.7862 24.9271 12.7648 24.4798C12.6671 22.4368 13.2464 20.5474 14.4109 19.1117C15.5961 17.6502 23.0534 11.064 23.6932 10.9134C24.0454 10.8307 24.5815 11.155 24.6032 11.4641C24.6124 11.594 24.5939 12.0894 24.5624 12.5651C24.5036 13.4485 24.6351 14.5358 24.8866 15.2463C24.964 15.4649 25.0387 15.6453 25.0528 15.6471C25.0667 15.649 25.123 15.1762 25.1778 14.5966C25.4211 12.0236 26.349 9.81726 27.8176 8.31909C28.8645 7.25126 31.2184 5.68117 32.6687 5.08339C33.0763 4.9154 33.3956 5.06125 33.615 5.51559C33.7464 5.78765 33.7336 5.83415 33.2309 6.90905C32.4009 8.68397 32.2166 9.33187 31.9452 11.428L31.7045 13.2878L31.4214 13.4552C31.0527 13.6732 30.7336 13.6236 30.4489 13.3041C30.2697 13.103 30.2177 12.9021 30.2118 12.3888C30.201 11.4662 30.4425 9.79744 30.7282 8.81995C30.861 8.36519 30.9585 7.97557 30.9448 7.95416C30.8902 7.86884 29.8626 8.58917 29.3257 9.08923C27.3706 10.9102 26.6028 13.44 26.7568 17.554C26.7885 18.4006 26.7739 18.5077 26.5919 18.7684C26.2071 19.3192 25.6893 19.2001 24.942 18.3889C23.9711 17.3348 23.1281 15.5618 22.9797 14.2618C22.9507 14.0079 22.9147 13.7381 22.8996 13.6621C22.8687 13.5057 22.4763 13.8221 20.3353 15.7309C18.3519 17.4992 16.2462 19.482 15.7746 20.0255C15.2652 20.6126 14.7153 21.7454 14.5237 22.6026C14.321 23.5094 14.3617 25.0432 14.6267 26.4825C14.816 27.5106 14.8208 27.6617 14.6723 27.8887C14.5808 28.0286 14.3738 28.186 14.2124 28.2386C13.9633 28.3195 13.8509 28.3009 13.4699 28.1152C12.8336 27.8052 12.1709 27.2783 11.645 26.6644C11.3959 26.3737 11.166 26.1676 11.1342 26.2066C10.8127 26.5998 10.279 29.3362 10.2645 30.6658C10.2533 31.687 10.3978 33.3025 10.5147 33.4643C10.602 33.5852 12.9412 32.3397 15.3514 30.8891C22.5642 26.5481 29.3891 20.9555 34.7304 15.0092C35.9544 13.6466 36.2606 13.3903 36.6097 13.4364C36.9178 13.4771 37.3934 14.0373 37.3511 14.3096C37.3356 14.4091 37.2285 14.6158 37.1131 14.7689Z" fill="currentColor"/>
    </symbol>
</svg>

